<svg width="44" height="44" viewBox="0 0 44 44" fill="none" xmlns="http://www.w3.org/2000/svg">
<path d="M38.4999 34.8333H42.1666V38.5H1.83325V34.8333H5.49992V7.33333C5.49992 6.8471 5.69307 6.38079 6.03689 6.03697C6.38071 5.69315 6.84702 5.5 7.33325 5.5H25.6666C26.1528 5.5 26.6191 5.69315 26.9629 6.03697C27.3068 6.38079 27.4999 6.8471 27.4999 7.33333V34.8333H34.8333V20.1667H31.1666V16.5H36.6666C37.1528 16.5 37.6191 16.6932 37.9629 17.037C38.3068 17.3808 38.4999 17.8471 38.4999 18.3333V34.8333ZM9.16658 9.16667V34.8333H23.8333V9.16667H9.16658ZM12.8333 20.1667H20.1666V23.8333H12.8333V20.1667ZM12.8333 12.8333H20.1666V16.5H12.8333V12.8333Z" fill="#E9A616"/>
</svg>
