<svg width="38" height="38" viewBox="0 0 38 38" fill="none" xmlns="http://www.w3.org/2000/svg">
<path d="M32.7222 8.44434H23.2222V34.8332H34.8333V10.5554C34.8333 9.99555 34.6109 9.45858 34.215 9.06267C33.8191 8.66676 33.2821 8.44434 32.7222 8.44434ZM27.4444 26.3888H25.3333V24.2777H27.4444V26.3888ZM27.4444 21.111H25.3333V18.9999H27.4444V21.111ZM27.4444 15.8332H25.3333V13.7221H27.4444V15.8332ZM31.6667 26.3888H29.5556V24.2777H31.6667V26.3888ZM31.6667 21.111H29.5556V18.9999H31.6667V21.111ZM31.6667 15.8332H29.5556V13.7221H31.6667V15.8332Z" fill="#E9A616"/>
<path d="M18.8733 3.1665H6.46C5.8665 3.1665 5.29732 3.40227 4.87765 3.82193C4.45799 4.2416 4.22222 4.81079 4.22222 5.40428V34.8332H9.5V31.6665H15.8333V34.8332H21.1111V5.40428C21.1111 4.81079 20.8753 4.2416 20.4557 3.82193C20.036 3.40227 19.4668 3.1665 18.8733 3.1665ZM9.5 26.3887H7.38889V24.2776H9.5V26.3887ZM9.5 21.1109H7.38889V18.9998H9.5V21.1109ZM9.5 15.8332H7.38889V13.7221H9.5V15.8332ZM9.5 10.5554H7.38889V8.44428H9.5V10.5554ZM13.7222 26.3887H11.6111V24.2776H13.7222V26.3887ZM13.7222 21.1109H11.6111V18.9998H13.7222V21.1109ZM13.7222 15.8332H11.6111V13.7221H13.7222V15.8332ZM13.7222 10.5554H11.6111V8.44428H13.7222V10.5554ZM17.9444 26.3887H15.8333V24.2776H17.9444V26.3887ZM17.9444 21.1109H15.8333V18.9998H17.9444V21.1109ZM17.9444 15.8332H15.8333V13.7221H17.9444V15.8332ZM17.9444 10.5554H15.8333V8.44428H17.9444V10.5554Z" fill="#E9A616"/>
</svg>
