<svg width="44" height="44" viewBox="0 0 44 44" fill="none" xmlns="http://www.w3.org/2000/svg">
<path d="M21.9998 36.6665C25.8897 36.6665 29.6202 35.1213 32.3707 32.3707C35.1213 29.6202 36.6665 25.8897 36.6665 21.9998C36.6665 18.11 35.1213 14.3795 32.3707 11.6289C29.6202 8.8784 25.8897 7.33317 21.9998 7.33317C18.11 7.33317 14.3795 8.8784 11.6289 11.6289C8.8784 14.3795 7.33317 18.11 7.33317 21.9998C7.33317 25.8897 8.8784 29.6202 11.6289 32.3707C14.3795 35.1213 18.11 36.6665 21.9998 36.6665ZM21.9998 3.6665C24.4074 3.6665 26.7914 4.14071 29.0157 5.06205C31.24 5.98338 33.2611 7.33381 34.9635 9.03621C36.6659 10.7386 38.0163 12.7597 38.9376 14.984C39.859 17.2083 40.3332 19.5923 40.3332 21.9998C40.3332 26.8621 38.4016 31.5253 34.9635 34.9635C31.5253 38.4016 26.8621 40.3332 21.9998 40.3332C11.8615 40.3332 3.6665 32.0832 3.6665 21.9998C3.6665 17.1375 5.59805 12.4744 9.03621 9.03621C12.4744 5.59805 17.1375 3.6665 21.9998 3.6665ZM22.9165 12.8332V22.4582L31.1665 27.3532L29.7915 29.6082L20.1665 23.8332V12.8332H22.9165Z" fill="#FFA629"/>
</svg>
