<svg width="44" height="44" viewBox="0 0 44 44" fill="none" xmlns="http://www.w3.org/2000/svg">
<g clip-path="url(#clip0_63_4)">
<path d="M17.5625 29C17.5625 29.547 17.3452 30.0716 16.9584 30.4584C16.5716 30.8452 16.047 31.0625 15.5 31.0625C14.953 31.0625 14.4284 30.8452 14.0416 30.4584C13.6548 30.0716 13.4375 29.547 13.4375 29C13.4375 28.453 13.6548 27.9284 14.0416 27.5416C14.4284 27.1548 14.953 26.9375 15.5 26.9375C16.047 26.9375 16.5716 27.1548 16.9584 27.5416C17.3452 27.9284 17.5625 28.453 17.5625 29Z" fill="black"/>
<path d="M18.7271 7.90771L23.0996 14.0347L25.983 13.0516L28.6147 20.7502H29.9375V37.2502H1.0625V20.7502H1.76375V20.7365L2.65475 20.7447L18.7271 7.90771ZM11.9209 20.7502H25.7094L24.2835 16.5798L22.1907 17.2495L11.9209 20.7502ZM9.77863 18.5736L20.3813 14.9615L18.1758 11.8677L9.77863 18.5736ZM6.5625 23.5002H3.8125V26.2502C4.54185 26.2502 5.24132 25.9605 5.75704 25.4448C6.27277 24.929 6.5625 24.2296 6.5625 23.5002ZM20.3125 29.0002C20.3125 28.3682 20.188 27.7424 19.9462 27.1586C19.7043 26.5747 19.3498 26.0441 18.903 25.5973C18.4561 25.1504 17.9255 24.7959 17.3417 24.554C16.7578 24.3122 16.132 24.1877 15.5 24.1877C14.868 24.1877 14.2422 24.3122 13.6583 24.554C13.0745 24.7959 12.5439 25.1504 12.097 25.5973C11.6502 26.0441 11.2957 26.5747 11.0538 27.1586C10.812 27.7424 10.6875 28.3682 10.6875 29.0002C10.6875 30.2766 11.1945 31.5006 12.097 32.4032C12.9996 33.3057 14.2236 33.8127 15.5 33.8127C16.7764 33.8127 18.0004 33.3057 18.903 32.4032C19.8055 31.5006 20.3125 30.2766 20.3125 29.0002ZM27.1875 34.5002V31.7502C26.4582 31.7502 25.7587 32.0399 25.243 32.5557C24.7272 33.0714 24.4375 33.7709 24.4375 34.5002H27.1875ZM24.4375 23.5002C24.4375 24.2296 24.7272 24.929 25.243 25.4448C25.7587 25.9605 26.4582 26.2502 27.1875 26.2502V23.5002H24.4375ZM3.8125 34.5002H6.5625C6.5625 33.7709 6.27277 33.0714 5.75704 32.5557C5.24132 32.0399 4.54185 31.7502 3.8125 31.7502V34.5002Z" fill="black"/>
</g>
<defs>
<clipPath id="clip0_63_4">
<rect width="44" height="44" fill="white"/>
</clipPath>
</defs>
</svg>
