<svg width="50" height="50" viewBox="0 0 50 50" fill="none" xmlns="http://www.w3.org/2000/svg">
<path d="M25 50C21.5417 50 18.2917 49.3433 15.25 48.03C12.2083 46.7167 9.5625 44.9358 7.3125 42.6875C5.0625 40.4392 3.28167 37.7933 1.97 34.75C0.658337 31.7067 0.00166983 28.4567 3.16456e-06 25C-0.0016635 21.5433 0.655003 18.2933 1.97 15.25C3.285 12.2067 5.06584 9.56083 7.3125 7.3125C9.55917 5.06417 12.205 3.28333 15.25 1.97C18.295 0.656667 21.545 0 25 0C28.455 0 31.705 0.656667 34.75 1.97C37.795 3.28333 40.4408 5.06417 42.6875 7.3125C44.9342 9.56083 46.7158 12.2067 48.0325 15.25C49.3492 18.2933 50.005 21.5433 50 25C49.995 28.4567 49.3383 31.7067 48.03 34.75C46.7217 37.7933 44.9408 40.4392 42.6875 42.6875C40.4342 44.9358 37.7883 46.7175 34.75 48.0325C31.7117 49.3475 28.4617 50.0033 25 50ZM25 45C30.5833 45 35.3125 43.0625 39.1875 39.1875C43.0625 35.3125 45 30.5833 45 25C45 19.4167 43.0625 14.6875 39.1875 10.8125C35.3125 6.9375 30.5833 5 25 5C19.4167 5 14.6875 6.9375 10.8125 10.8125C6.9375 14.6875 5 19.4167 5 25C5 30.5833 6.9375 35.3125 10.8125 39.1875C14.6875 43.0625 19.4167 45 25 45ZM25 40C20.8333 40 17.2917 38.5417 14.375 35.625C11.4583 32.7083 10 29.1667 10 25C10 20.8333 11.4583 17.2917 14.375 14.375C17.2917 11.4583 20.8333 10 25 10C29.1667 10 32.7083 11.4583 35.625 14.375C38.5417 17.2917 40 20.8333 40 25C40 29.1667 38.5417 32.7083 35.625 35.625C32.7083 38.5417 29.1667 40 25 40ZM25 35C27.75 35 30.1042 34.0208 32.0625 32.0625C34.0208 30.1042 35 27.75 35 25C35 22.25 34.0208 19.8958 32.0625 17.9375C30.1042 15.9792 27.75 15 25 15C22.25 15 19.8958 15.9792 17.9375 17.9375C15.9792 19.8958 15 22.25 15 25C15 27.75 15.9792 30.1042 17.9375 32.0625C19.8958 34.0208 22.25 35 25 35ZM25 30C23.625 30 22.4483 29.5108 21.47 28.5325C20.4917 27.5542 20.0017 26.3767 20 25C19.9983 23.6233 20.4883 22.4467 21.47 21.47C22.4517 20.4933 23.6283 20.0033 25 20C26.3717 19.9967 27.5492 20.4867 28.5325 21.47C29.5158 22.4533 30.005 23.63 30 25C29.995 26.37 29.5058 27.5475 28.5325 28.5325C27.5592 29.5175 26.3817 30.0067 25 30Z" fill="#FFA629"/>
</svg>
