<svg width="24" height="33" viewBox="0 0 24 33" fill="none" xmlns="http://www.w3.org/2000/svg">
<path d="M20.972 0.259867L12 5.17543L3.028 0.259867C2.7246 0.0937622 2.37843 0.00414062 2.02476 0.000140063C1.67109 -0.00386049 1.32259 0.0779032 1.01479 0.237094C0.706984 0.396285 0.450891 0.627209 0.27262 0.90632C0.0943499 1.18543 0.000279417 1.50274 0 1.8259V25.5814C0.000272914 25.8969 0.0899399 26.207 0.260274 26.4814C0.430608 26.7558 0.675806 26.9853 0.972 27.1475L10.972 32.6295C11.2826 32.7996 11.6379 32.8894 12 32.8894C12.3621 32.8894 12.7174 32.7996 13.028 32.6295L23.028 27.1475C23.3242 26.9853 23.5694 26.7558 23.7397 26.4814C23.9101 26.207 23.9997 25.8969 24 25.5814V1.8259C23.9997 1.50274 23.9056 1.18543 23.7274 0.90632C23.5491 0.627209 23.293 0.396285 22.9852 0.237094C22.6774 0.0779032 22.3289 -0.00386049 21.9752 0.000140063C21.6216 0.00414062 21.2754 0.0937622 20.972 0.259867Z" fill="#FFA629"/>
</svg>
