<svg width="43" height="35" viewBox="0 0 43 35" fill="none" xmlns="http://www.w3.org/2000/svg">
<path d="M32.0563 17.0939L25.1802 9.5085L27.9403 6.51706L32.0563 11.0576L40.2883 1.97649L43 5.02134L32.0563 17.0939ZM15.4955 17.0939C13.3649 17.0939 11.5409 16.257 10.0236 14.5833C8.50638 12.9095 7.74775 10.8974 7.74775 8.54697C7.74775 6.19655 8.50638 4.18445 10.0236 2.51067C11.5409 0.836891 13.3649 0 15.4955 0C17.6261 0 19.4501 0.836891 20.9673 2.51067C22.4846 4.18445 23.2432 6.19655 23.2432 8.54697C23.2432 10.8974 22.4846 12.9095 20.9673 14.5833C19.4501 16.257 17.6261 17.0939 15.4955 17.0939ZM0 34.1879V28.205C0 26.9942 0.282793 25.8816 0.848378 24.8674C1.41396 23.8532 2.1642 23.0782 3.0991 22.5426C5.1006 21.4386 7.13438 20.611 9.20045 20.0597C11.2665 19.5084 13.3649 19.2321 15.4955 19.2307C17.6261 19.2292 19.7245 19.5056 21.7905 20.0597C23.8566 20.6139 25.8904 21.4415 27.8919 22.5426C28.8281 23.0768 29.579 23.8517 30.1445 24.8674C30.7101 25.8831 30.9923 26.9956 30.991 28.205V34.1879H0ZM3.87387 29.9144H27.1171V28.205C27.1171 27.8133 27.0287 27.4571 26.8518 27.1366C26.6748 26.8161 26.4405 26.5668 26.1486 26.3888C24.4054 25.4272 22.646 24.7064 20.8705 24.2264C19.095 23.7463 17.3033 23.5056 15.4955 23.5042C13.6877 23.5027 11.896 23.7435 10.1205 24.2264C8.34497 24.7093 6.58559 25.4301 4.84234 26.3888C4.5518 26.5668 4.31743 26.8161 4.13923 27.1366C3.96104 27.4571 3.87258 27.8133 3.87387 28.205V29.9144ZM15.4955 12.8204C16.5608 12.8204 17.4731 12.4024 18.2324 11.5662C18.9917 10.73 19.3707 9.7236 19.3694 8.54697C19.3681 7.37033 18.9891 6.36464 18.2324 5.52989C17.4757 4.69513 16.5634 4.27633 15.4955 4.27348C14.4276 4.27063 13.5159 4.68943 12.7605 5.52989C12.0051 6.37034 11.6255 7.37603 11.6216 8.54697C11.6177 9.7179 11.9974 10.7243 12.7605 11.5662C13.5237 12.4081 14.4353 12.8261 15.4955 12.8204Z" fill="#E9A616"/>
</svg>
