<svg width="40" height="40" viewBox="0 0 40 40" fill="none" xmlns="http://www.w3.org/2000/svg">
<path d="M26.6667 18.3335C29.4333 18.3335 31.65 16.1002 31.65 13.3335C31.65 10.5668 29.4333 8.3335 26.6667 8.3335C23.9 8.3335 21.6667 10.5668 21.6667 13.3335C21.6667 16.1002 23.9 18.3335 26.6667 18.3335ZM13.3333 18.3335C16.1 18.3335 18.3167 16.1002 18.3167 13.3335C18.3167 10.5668 16.1 8.3335 13.3333 8.3335C10.5667 8.3335 8.33332 10.5668 8.33332 13.3335C8.33332 16.1002 10.5667 18.3335 13.3333 18.3335ZM13.3333 21.6668C9.44999 21.6668 1.66666 23.6168 1.66666 27.5002V31.6668H25V27.5002C25 23.6168 17.2167 21.6668 13.3333 21.6668ZM26.6667 21.6668C26.1833 21.6668 25.6333 21.7002 25.05 21.7502C26.9833 23.1502 28.3333 25.0335 28.3333 27.5002V31.6668H38.3333V27.5002C38.3333 23.6168 30.55 21.6668 26.6667 21.6668Z" fill="#E9A616"/>
</svg>
