<svg width="36" height="25" viewBox="0 0 36 25" fill="none" xmlns="http://www.w3.org/2000/svg">
<path d="M17.875 7.3125C19.1679 7.3125 20.4079 7.82611 21.3221 8.74035C22.2364 9.65459 22.75 10.8946 22.75 12.1875C22.75 13.4804 22.2364 14.7204 21.3221 15.6346C20.4079 16.5489 19.1679 17.0625 17.875 17.0625C16.5821 17.0625 15.3421 16.5489 14.4279 15.6346C13.5136 14.7204 13 13.4804 13 12.1875C13 10.8946 13.5136 9.65459 14.4279 8.74035C15.3421 7.82611 16.5821 7.3125 17.875 7.3125ZM17.875 0C26 0 32.9388 5.05375 35.75 12.1875C32.9388 19.3212 26 24.375 17.875 24.375C9.75 24.375 2.81125 19.3212 0 12.1875C2.81125 5.05375 9.75 0 17.875 0ZM3.5425 12.1875C4.85591 14.8692 6.89537 17.1287 9.42903 18.709C11.9627 20.2894 14.8889 21.1271 17.875 21.1271C20.8611 21.1271 23.7873 20.2894 26.321 18.709C28.8546 17.1287 30.8941 14.8692 32.2075 12.1875C30.8941 9.50575 28.8546 7.24628 26.321 5.66596C23.7873 4.08564 20.8611 3.24786 17.875 3.24786C14.8889 3.24786 11.9627 4.08564 9.42903 5.66596C6.89537 7.24628 4.85591 9.50575 3.5425 12.1875Z" fill="#E9A616"/>
</svg>
