<svg width="36" height="35" viewBox="0 0 36 35" fill="none" xmlns="http://www.w3.org/2000/svg">
<path fill-rule="evenodd" clip-rule="evenodd" d="M21.6 0C23.0322 0 24.4057 0.635634 25.4184 1.76707C26.4311 2.8985 27 4.43306 27 6.03315H32.4C33.3548 6.03315 34.2705 6.45691 34.9456 7.2112C35.6207 7.96549 36 8.98853 36 10.0553V30.1658C36 31.2325 35.6207 32.2555 34.9456 33.0098C34.2705 33.7641 33.3548 34.1879 32.4 34.1879H3.6C2.64522 34.1879 1.72955 33.7641 1.05442 33.0098C0.379284 32.2555 0 31.2325 0 30.1658V10.0553C0 8.98853 0.379284 7.96549 1.05442 7.2112C1.72955 6.45691 2.64522 6.03315 3.6 6.03315H9C9 4.43306 9.56893 2.8985 10.5816 1.76707C11.5943 0.635634 12.9678 0 14.4 0H21.6ZM10.8 8.0442C10.3591 8.04427 9.93359 8.22511 9.60413 8.55243C9.27467 8.87974 9.06418 9.33077 9.0126 9.81996L9 10.0553V30.1658C9.00051 30.6783 9.17618 31.1713 9.49113 31.5441C9.80607 31.9168 10.2365 32.1411 10.6945 32.1711C11.1525 32.2012 11.6035 32.0347 11.9553 31.7057C12.3071 31.3767 12.5332 30.91 12.5874 30.4011L12.6 30.1658V10.0553C12.6 9.52189 12.4104 9.01037 12.0728 8.63323C11.7352 8.25608 11.2774 8.0442 10.8 8.0442ZM25.2 8.0442C24.7226 8.0442 24.2648 8.25608 23.9272 8.63323C23.5896 9.01037 23.4 9.52189 23.4 10.0553V30.1658C23.4 30.6991 23.5896 31.2106 23.9272 31.5878C24.2648 31.9649 24.7226 32.1768 25.2 32.1768C25.6774 32.1768 26.1352 31.9649 26.4728 31.5878C26.8104 31.2106 27 30.6991 27 30.1658V10.0553C27 9.52189 26.8104 9.01037 26.4728 8.63323C26.1352 8.25608 25.6774 8.0442 25.2 8.0442ZM21.6 4.0221H14.4C13.9591 4.02217 13.5336 4.20301 13.2041 4.53032C12.8747 4.85764 12.6642 5.30867 12.6126 5.79786L12.6 6.03315H23.4C23.3999 5.54058 23.2381 5.06516 22.9451 4.69707C22.6521 4.32897 22.2485 4.09381 21.8106 4.03618L21.6 4.0221Z" fill="#E9A616"/>
</svg>
