<svg width="37" height="42" viewBox="0 0 37 42" fill="none" xmlns="http://www.w3.org/2000/svg">
<path d="M34.6222 8.22802C37.2734 12.6917 36.6697 17.9577 33.7559 22.2362C31.2884 25.7126 27.7446 28.6541 24.7259 31.8836C23.4134 33.3235 22.1009 34.8663 21.1297 36.5324C20.7884 37.0878 20.5522 37.6638 20.2896 38.2397C20.0272 38.8157 19.7909 39.3917 19.5546 39.9676C19.3184 40.5025 19.0296 41.1401 18.1634 41.1401C17.1396 41.1401 16.8509 40.235 16.6409 39.6179C16.0109 38.1163 15.3809 36.6764 14.4096 35.2982C13.3071 33.6732 11.9159 32.1716 10.4984 30.7111L34.6222 8.22802ZM10.6034 13.206L1.9409 21.2694C3.54215 23.923 5.9309 26.1857 8.21465 28.4484C8.7659 28.9626 9.31715 29.4975 9.84215 30.0529L20.7884 19.8912L20.6834 19.9118C16.8509 20.9403 12.5984 19.4181 11.0759 16.456C10.8659 16.1064 10.7084 15.695 10.6034 15.2836C10.4565 14.6027 10.4565 13.9074 10.6034 13.2266V13.206ZM3.9359 5.38936L3.90965 5.40993C-0.34285 9.62679 -1.07785 15.4893 1.4684 20.4466L11.9421 10.6964L11.8109 10.5936L3.9359 5.38936ZM23.9909 0.740522L15.5384 8.57772L15.6434 8.55715C19.1609 7.61092 23.0984 8.80399 24.8834 11.3135C25.2772 11.8895 25.5921 12.5066 25.6972 13.1237C25.8547 13.9054 25.9072 14.4608 25.7234 15.2218V15.2424L34.1234 7.42579C31.9253 4.29941 28.3236 1.92426 24.0171 0.761092L23.9909 0.740522ZM12.6247 10.0588L22.8884 0.493681L22.7834 0.473111C21.2609 0.164561 19.7121 0 18.1634 0C12.9921 0 8.10965 1.74846 4.64465 4.75168L4.59215 4.77225L12.6247 10.0588Z" fill="#FFA629"/>
</svg>
