<svg width="31" height="31" viewBox="0 0 31 31" fill="none" xmlns="http://www.w3.org/2000/svg">
<path d="M12.9167 2.5835H18.0833C18.7685 2.5835 19.4256 2.85567 19.91 3.34014C20.3945 3.82461 20.6667 4.48169 20.6667 5.16683V7.75016H25.8333C26.5185 7.75016 27.1756 8.02234 27.66 8.5068C28.1445 8.99127 28.4167 9.64835 28.4167 10.3335V24.5418C28.4167 25.227 28.1445 25.8841 27.66 26.3685C27.1756 26.853 26.5185 27.1252 25.8333 27.1252H5.16668C4.48153 27.1252 3.82445 26.853 3.33998 26.3685C2.85552 25.8841 2.58334 25.227 2.58334 24.5418V10.3335C2.58334 8.89975 3.73293 7.75016 5.16668 7.75016H10.3333V5.16683C10.3333 3.73308 11.4829 2.5835 12.9167 2.5835ZM18.0833 7.75016V5.16683H12.9167V7.75016H18.0833Z" fill="black"/>
</svg>
