<svg width="35" height="35" viewBox="0 0 35 35" fill="none" xmlns="http://www.w3.org/2000/svg">
<path d="M17.5 30.625C19.2236 30.625 20.9303 30.2855 22.5227 29.6259C24.1151 28.9663 25.562 27.9995 26.7808 26.7808C27.9995 25.562 28.9663 24.1151 29.6259 22.5227C30.2855 20.9303 30.625 19.2236 30.625 17.5C30.625 15.7764 30.2855 14.0697 29.6259 12.4773C28.9663 10.8849 27.9995 9.43799 26.7808 8.21922C25.562 7.00045 24.1151 6.03367 22.5227 5.37408C20.9303 4.71449 19.2236 4.375 17.5 4.375M17.5 30.625C15.7764 30.625 14.0697 30.2855 12.4773 29.6259C10.8849 28.9663 9.43799 27.9995 8.21922 26.7808C7.00045 25.562 6.03367 24.1151 5.37408 22.5227C4.71449 20.9303 4.375 19.2236 4.375 17.5C4.375 15.7764 4.71449 14.0697 5.37408 12.4773C6.03367 10.8849 7.00045 9.43799 8.21922 8.21922C9.43799 7.00045 10.8849 6.03367 12.4773 5.37408C14.0697 4.71449 15.7764 4.375 17.5 4.375M17.5 30.625C21.5265 30.625 23.2473 23.0956 23.2473 17.5C23.2473 11.9044 21.5265 4.375 17.5 4.375M17.5 30.625C13.4735 30.625 11.7527 23.0956 11.7527 17.5C11.7527 11.9044 13.4735 4.375 17.5 4.375M5.10417 13.125H29.8958M5.10417 21.875H29.8958" stroke="black" stroke-width="1.5" stroke-linecap="round" stroke-linejoin="round"/>
</svg>
