<svg width="48" height="38" viewBox="0 0 48 38" fill="none" xmlns="http://www.w3.org/2000/svg">
<path d="M9.2925 4.11401C9.45 5.94475 9.84375 7.73434 10.4737 9.44166L7.32375 11.9101C6.2475 9.44166 5.565 6.82926 5.32875 4.11401H9.2925ZM35.175 28.8392C37.4062 29.3329 39.69 29.6415 42 29.7649V32.8298C38.535 32.6447 35.2012 32.1099 32.025 31.2871L35.175 28.8392ZM11.8125 0H2.625C1.18125 0 0 0.925653 0 2.05701C0 21.3723 19.9762 37.0261 44.625 37.0261C46.0687 37.0261 47.25 36.1005 47.25 34.9691V27.7901C47.25 26.6588 46.0687 25.7331 44.625 25.7331C41.37 25.7331 38.1938 25.3217 35.2537 24.5606C34.9938 24.4846 34.7173 24.4496 34.44 24.4578C33.7575 24.4578 33.1012 24.6635 32.5762 25.0543L26.8013 29.5797C19.3606 26.5978 13.3079 21.8547 9.5025 16.0241L15.2775 11.4987C16.0125 10.9227 16.2225 10.1205 15.9337 9.40052C14.9397 7.03063 14.4346 4.55163 14.4375 2.05701C14.4375 0.925653 13.2563 0 11.8125 0Z" fill="#FFA629"/>
</svg>
