<svg width="52" height="52" viewBox="0 0 52 52" fill="none" xmlns="http://www.w3.org/2000/svg">
<path d="M19.5002 29.7918C14.4302 29.7918 4.3335 32.3268 4.3335 37.3752V41.1668H34.6668V37.3752C34.6668 32.3268 24.5702 29.7918 19.5002 29.7918ZM9.4035 36.8335C11.2235 35.5768 15.6218 34.1252 19.5002 34.1252C23.3785 34.1252 27.7768 35.5768 29.5968 36.8335H9.4035ZM19.5002 26.0002C23.6818 26.0002 27.0835 22.5985 27.0835 18.4168C27.0835 14.2352 23.6818 10.8335 19.5002 10.8335C15.3185 10.8335 11.9168 14.2352 11.9168 18.4168C11.9168 22.5985 15.3185 26.0002 19.5002 26.0002ZM19.5002 15.1668C21.2985 15.1668 22.7502 16.6185 22.7502 18.4168C22.7502 20.2152 21.2985 21.6668 19.5002 21.6668C17.7018 21.6668 16.2502 20.2152 16.2502 18.4168C16.2502 16.6185 17.7018 15.1668 19.5002 15.1668ZM34.7535 29.9218C37.2668 31.7418 39.0002 34.1685 39.0002 37.3752V41.1668H47.6668V37.3752C47.6668 32.9985 40.0835 30.5068 34.7535 29.9218ZM32.5002 26.0002C36.6818 26.0002 40.0835 22.5985 40.0835 18.4168C40.0835 14.2352 36.6818 10.8335 32.5002 10.8335C31.3302 10.8335 30.2468 11.1152 29.2502 11.5918C30.6152 13.5202 31.4168 15.8818 31.4168 18.4168C31.4168 20.9518 30.6152 23.3135 29.2502 25.2418C30.2468 25.7185 31.3302 26.0002 32.5002 26.0002Z" fill="#FFA629"/>
</svg>
