<svg width="49" height="31" viewBox="0 0 49 31" fill="none" xmlns="http://www.w3.org/2000/svg">
<path d="M4.9 30.5612C3.5525 30.5612 2.39937 30.1875 1.4406 29.44C0.481833 28.6925 0.00163333 27.7929 0 26.7411V3.82015C0 2.76961 0.4802 1.8706 1.4406 1.12312C2.401 0.375648 3.55413 0.00127338 4.9 0H44.1C45.4475 0 46.6014 0.374375 47.5618 1.12312C48.5222 1.87187 49.0016 2.77088 49 3.82015V26.7411C49 27.7916 48.5206 28.6913 47.5618 29.44C46.6031 30.1888 45.4491 30.5625 44.1 30.5612H4.9ZM24.5 17.1907L44.1 7.64031V3.82015L24.5 13.3705L4.9 3.82015V7.64031L24.5 17.1907Z" fill="#FFA629"/>
</svg>
