<svg width="25" height="42" viewBox="0 0 25 42" fill="none" xmlns="http://www.w3.org/2000/svg">
<path d="M12.5 25.2C9.18479 25.2 6.00537 23.8725 3.66117 21.5095C1.31696 19.1466 0 15.9417 0 12.6C0 9.25827 1.31696 6.05341 3.66117 3.69045C6.00537 1.3275 9.18479 0 12.5 0C15.8152 0 18.9946 1.3275 21.3388 3.69045C23.683 6.05341 25 9.25827 25 12.6C25 15.9417 23.683 19.1466 21.3388 21.5095C18.9946 23.8725 15.8152 25.2 12.5 25.2ZM12.5 18.9C14.1576 18.9 15.7473 18.2363 16.9194 17.0548C18.0915 15.8733 18.75 14.2709 18.75 12.6C18.75 10.9291 18.0915 9.32671 16.9194 8.14523C15.7473 6.96375 14.1576 6.3 12.5 6.3C10.8424 6.3 9.25268 6.96375 8.08058 8.14523C6.90848 9.32671 6.25 10.9291 6.25 12.6C6.25 14.2709 6.90848 15.8733 8.08058 17.0548C9.25268 18.2363 10.8424 18.9 12.5 18.9ZM20.8333 24.675V42L12.5 33.6L4.16667 42V24.675C6.6086 26.3999 9.51815 27.3253 12.5 27.3253C15.4818 27.3253 18.3914 26.3999 20.8333 24.675Z" fill="#E9A616"/>
</svg>
