<svg width="69" height="69" viewBox="0 0 69 69" fill="none" xmlns="http://www.w3.org/2000/svg">
<path d="M34.5 5.75C30.7245 5.75 26.986 6.49364 23.4979 7.93846C20.0097 9.38329 16.8404 11.501 14.1707 14.1707C8.77901 19.5624 5.75 26.875 5.75 34.5C5.75 42.125 8.77901 49.4376 14.1707 54.8293C16.8404 57.499 20.0097 59.6167 23.4979 61.0615C26.986 62.5064 30.7245 63.25 34.5 63.25C42.125 63.25 49.4376 60.221 54.8293 54.8293C60.221 49.4376 63.25 42.125 63.25 34.5C63.25 30.7245 62.5064 26.986 61.0615 23.4979C59.6167 20.0097 57.499 16.8404 54.8293 14.1707C52.1596 11.501 48.9903 9.38329 45.5022 7.93846C42.014 6.49364 38.2755 5.75 34.5 5.75ZM46.575 46.575L31.625 37.375V20.125H35.9375V35.075L48.875 42.8375L46.575 46.575Z" fill="#FFA629"/>
</svg>
